# xmcd CD database file
#
# Track frame offsets:
#	150
#	13036
#	40214
#	55739
#	74835
#	94753
#	108840
#	123302
#	136038
#	155755
#	168569
#	185735
#
# Disc length: 2677 seconds
#
# Revision: 0
# Processed by: cddbd v1.5PL3 Copyright (c) Steve Scherf et al.
# Submitted via: CDex 1.51
#
DISCID=a60a730c
DTITLE=Knight, Brian - A Dark Horse
DYEAR=2000
DGENRE=Blues
TTITLE0=Boogie Beat
TTITLE1=Goin' Down Slow
TTITLE2=Bring Your Corn To Me
TTITLE3=Trouble In Mind
TTITLE4=Honey Bee
TTITLE5=Blues Is Rock'n Roll
TTITLE6=Mannish Boy
TTITLE7=Got The Blues For You
TTITLE8=Good Morning Blues
TTITLE9=Cabin In The Sky
TTITLE10=Bright Lights, Big City
TTITLE11=Can't Be Satisfied
EXTD=YEAR: 2000
EXTT0=
EXTT1=
EXTT2=
EXTT3=
EXTT4=
EXTT5=
EXTT6=
EXTT7=
EXTT8=
EXTT9=
EXTT10=
EXTT11=
PLAYORDER=
